<svg width="720" height="480" viewBox="0 0 720 480" fill="none" xmlns="http://www.w3.org/2000/svg">
<rect width="720" height="480" fill="url(#paint0_linear)"/>
<path d="M276.472 278C275.896 278 275.544 277.712 275.416 277.136L272.632 264.08C272.632 263.952 272.568 263.856 272.44 263.792C272.376 263.728 272.28 263.696 272.152 263.696H252.376C252.248 263.696 252.12 263.728 251.992 263.792C251.928 263.856 251.896 263.952 251.896 264.08L249.112 277.136C249.048 277.712 248.696 278 248.056 278H246.232C245.912 278 245.656 277.904 245.464 277.712C245.336 277.52 245.304 277.264 245.368 276.944L259.96 211.664C260.088 211.088 260.44 210.8 261.016 210.8H263.416C264.056 210.8 264.408 211.088 264.472 211.664L279.16 276.944V277.136C279.16 277.712 278.872 278 278.296 278H276.472ZM252.76 260.144C252.696 260.208 252.696 260.304 252.76 260.432C252.824 260.496 252.92 260.528 253.048 260.528H271.48C271.608 260.528 271.704 260.496 271.768 260.432C271.832 260.304 271.832 260.208 271.768 260.144L262.456 217.232C262.392 217.04 262.328 216.944 262.264 216.944C262.2 216.944 262.136 217.04 262.072 217.232L252.76 260.144ZM323.199 278.768C318.847 278.768 315.327 277.36 312.639 274.544C310.015 271.728 308.703 267.984 308.703 263.312V254.768C308.703 254.128 309.023 253.808 309.663 253.808H311.487C312.127 253.808 312.447 254.128 312.447 254.768V263.504C312.447 267.088 313.439 269.968 315.423 272.144C317.407 274.32 319.999 275.408 323.199 275.408C326.463 275.408 329.087 274.32 331.071 272.144C333.055 269.968 334.047 267.088 334.047 263.504V211.76C334.047 211.12 334.367 210.8 335.007 210.8H336.831C337.471 210.8 337.791 211.12 337.791 211.76V263.312C337.791 267.984 336.447 271.728 333.759 274.544C331.071 277.36 327.551 278.768 323.199 278.768ZM403.792 211.76C403.792 211.12 404.112 210.8 404.752 210.8H406.576C407.216 210.8 407.536 211.12 407.536 211.76V277.04C407.536 277.68 407.216 278 406.576 278H404.272C403.76 278 403.408 277.744 403.216 277.232L381.424 220.4C381.36 220.208 381.264 220.144 381.136 220.208C381.008 220.208 380.944 220.304 380.944 220.496V277.04C380.944 277.68 380.624 278 379.984 278H378.16C377.52 278 377.2 277.68 377.2 277.04V211.76C377.2 211.12 377.52 210.8 378.16 210.8H380.368C380.88 210.8 381.232 211.056 381.424 211.568L403.312 268.112C403.376 268.304 403.472 268.4 403.6 268.4C403.728 268.336 403.792 268.208 403.792 268.016V211.76ZM472.852 278C472.276 278 471.924 277.712 471.796 277.136L469.012 264.08C469.012 263.952 468.948 263.856 468.82 263.792C468.756 263.728 468.66 263.696 468.532 263.696H448.756C448.628 263.696 448.5 263.728 448.372 263.792C448.308 263.856 448.276 263.952 448.276 264.08L445.492 277.136C445.428 277.712 445.076 278 444.436 278H442.612C442.292 278 442.036 277.904 441.844 277.712C441.716 277.52 441.684 277.264 441.748 276.944L456.34 211.664C456.468 211.088 456.82 210.8 457.396 210.8H459.796C460.436 210.8 460.788 211.088 460.852 211.664L475.54 276.944V277.136C475.54 277.712 475.252 278 474.676 278H472.852ZM449.14 260.144C449.076 260.208 449.076 260.304 449.14 260.432C449.204 260.496 449.3 260.528 449.428 260.528H467.86C467.988 260.528 468.084 260.496 468.148 260.432C468.212 260.304 468.212 260.208 468.148 260.144L458.836 217.232C458.772 217.04 458.708 216.944 458.644 216.944C458.58 216.944 458.516 217.04 458.452 217.232L449.14 260.144Z" fill="white"/>
<defs>
<linearGradient id="paint0_linear" x1="32" y1="23" x2="698" y2="470.5" gradientUnits="userSpaceOnUse">
<stop stop-color="#353850"/>
<stop offset="1" stop-color="#090A13"/>
</linearGradient>
</defs>
</svg>
