<svg width="50" height="50" viewBox="0 0 50 50" fill="none" xmlns="http://www.w3.org/2000/svg">
<path d="M24.9933 12.1726C17.8949 12.1726 12.1661 17.9015 12.1661 25C12.1661 32.0985 17.8949 37.8274 24.9933 37.8274C32.0917 37.8274 37.8205 32.0985 37.8205 25C37.8205 17.9015 32.0917 12.1726 24.9933 12.1726ZM24.9933 33.3369C20.4028 33.3369 16.6566 29.5906 16.6566 25C16.6566 20.4094 20.4028 16.6631 24.9933 16.6631C29.5838 16.6631 33.33 20.4094 33.33 25C33.33 29.5906 29.5838 33.3369 24.9933 33.3369ZM38.3458 8.65771C36.6885 8.65771 35.3501 9.99611 35.3501 11.6535C35.3501 13.3109 36.6885 14.6493 38.3458 14.6493C40.0031 14.6493 41.3415 13.3171 41.3415 11.6535C41.342 11.2599 41.2649 10.8702 41.1145 10.5065C40.9641 10.1428 40.7435 9.81233 40.4652 9.53405C40.1869 9.25577 39.8565 9.03512 39.4928 8.88474C39.1291 8.73437 38.7393 8.65721 38.3458 8.65771ZM49.9972 25C49.9972 21.5477 50.0285 18.1266 49.8346 14.6805C49.6407 10.6778 48.7276 7.12542 45.8007 4.19845C42.8675 1.26521 39.3214 0.358351 35.3188 0.16447C31.8665 -0.0294109 28.4455 0.00186028 24.9995 0.00186028C21.5473 0.00186028 18.1263 -0.0294109 14.6803 0.16447C10.6776 0.358351 7.12529 1.27147 4.19837 4.19845C1.26519 7.13168 0.358344 10.6778 0.164467 14.6805C-0.0294104 18.1329 0.00186025 21.5539 0.00186025 25C0.00186025 28.4461 -0.0294104 31.8734 0.164467 35.3195C0.358344 39.3222 1.27144 42.8746 4.19837 45.8016C7.13154 48.7348 10.6776 49.6417 14.6803 49.8355C18.1325 50.0294 21.5535 49.9981 24.9995 49.9981C28.4518 49.9981 31.8728 50.0294 35.3188 49.8355C39.3214 49.6417 42.8738 48.7285 45.8007 45.8016C48.7339 42.8683 49.6407 39.3222 49.8346 35.3195C50.0347 31.8734 49.9972 28.4523 49.9972 25ZM44.4936 39.7475C44.037 40.8857 43.4867 41.7363 42.6049 42.6119C41.723 43.4937 40.8787 44.0441 39.7405 44.5007C36.4508 45.8078 28.6394 45.5139 24.9933 45.5139C21.3471 45.5139 13.5295 45.8078 10.2398 44.5069C9.10159 44.0504 8.25103 43.5 7.37545 42.6182C6.49363 41.7363 5.94326 40.892 5.48671 39.7537C4.18586 36.4577 4.4798 28.6462 4.4798 25C4.4798 21.3538 4.18586 13.536 5.48671 10.2463C5.94326 9.10801 6.49363 8.25744 7.37545 7.38185C8.25728 6.50626 9.10159 5.94963 10.2398 5.49307C13.5295 4.19219 21.3471 4.48614 24.9933 4.48614C28.6394 4.48614 36.4571 4.19219 39.7467 5.49307C40.885 5.94963 41.7355 6.5 42.6111 7.38185C43.4929 8.26369 44.0433 9.10801 44.4998 10.2463C45.8007 13.536 45.5068 21.3538 45.5068 25C45.5068 28.6462 45.8007 36.4577 44.4936 39.7475Z" fill="#A0A0A0"/>
</svg>
