<svg width="50" height="50" viewBox="0 0 50 50" fill="none" xmlns="http://www.w3.org/2000/svg">
<path d="M23.6663 19.5703V13.3594L13.2199 20.3125L17.885 23.4263L23.6663 19.5703ZM37.846 27.2545V22.8013L34.5089 25.0279L37.846 27.2545ZM25 0C11.1942 0 0 11.1942 0 25C0 38.8058 11.1942 50 25 50C38.8058 50 50 38.8058 50 25C50 11.1942 38.8058 0 25 0ZM40.5134 29.7433C40.5134 29.8047 40.5078 29.8605 40.5022 29.9163C40.5022 29.9386 40.4967 29.9554 40.4911 29.9721C40.4832 30.0332 40.4682 30.0931 40.4464 30.1507C40.4353 30.1842 40.4241 30.2176 40.4129 30.2455C40.4018 30.2679 40.3906 30.2902 40.385 30.3125C40.3683 30.3404 40.3571 30.3739 40.3404 30.4018C40.3292 30.4241 40.3181 30.4408 40.3013 30.4632C40.2846 30.4911 40.2623 30.519 40.2455 30.5469C40.2288 30.5692 40.2176 30.5859 40.2009 30.6027C40.1786 30.625 40.1562 30.6529 40.1339 30.6752C40.1172 30.692 40.1004 30.7087 40.0781 30.7254C40.0558 30.7478 40.0279 30.7701 40 30.7868C39.9777 30.8036 39.9609 30.8203 39.9386 30.8315C39.933 30.8371 39.9219 30.8426 39.9163 30.8482L25.7366 40.2902C25.5134 40.4408 25.2567 40.5134 25 40.5134C24.7377 40.5134 24.481 40.4353 24.2578 40.2902L10.0781 30.8538C10.0725 30.8482 10.0614 30.8426 10.0558 30.8371L9.99442 30.7924C9.96652 30.7701 9.9442 30.7533 9.92188 30.731C9.90513 30.7143 9.88839 30.6975 9.86607 30.6808C9.84375 30.6585 9.82143 30.6362 9.79911 30.6083C9.78255 30.5911 9.76761 30.5724 9.75446 30.5525C9.73214 30.5246 9.7154 30.4967 9.69866 30.4688C9.6875 30.4464 9.67076 30.4297 9.6596 30.4074C9.64286 30.3795 9.62612 30.346 9.61496 30.3181C9.6038 30.2958 9.59263 30.2734 9.58705 30.2511C9.57589 30.2176 9.56473 30.1842 9.55357 30.1563C9.54799 30.1339 9.53683 30.1116 9.53125 30.0893C9.52009 30.0502 9.51451 30.0167 9.50893 29.9777C9.50335 29.9609 9.50335 29.9386 9.49777 29.9219C9.49219 29.8661 9.48661 29.8047 9.48661 29.7489V20.3069C9.48661 20.2511 9.49219 20.1897 9.49777 20.1339C9.50335 20.1172 9.50335 20.0949 9.50893 20.0781C9.5168 20.0171 9.53178 19.9571 9.55357 19.8996C9.56473 19.8661 9.57589 19.8326 9.58705 19.8047C9.59821 19.7824 9.60938 19.76 9.61496 19.7377C9.62612 19.7098 9.64286 19.6763 9.6596 19.6484C9.67076 19.6261 9.68192 19.6094 9.69866 19.5871C9.73214 19.5368 9.76562 19.4922 9.79911 19.4475C9.82143 19.4252 9.84375 19.3973 9.86607 19.375C9.88281 19.3583 9.89955 19.3415 9.92188 19.3248C9.9442 19.3025 9.9721 19.2801 9.99442 19.2634C10.0167 19.2467 10.0335 19.2299 10.0558 19.2188C10.0614 19.2132 10.0725 19.2076 10.0781 19.202L24.2578 9.76562C24.7042 9.46987 25.2902 9.46987 25.7366 9.76562L39.9163 19.202C39.9219 19.2076 39.933 19.2132 39.9386 19.2188L40 19.2634L40.0781 19.3248C40.0949 19.3415 40.1116 19.3583 40.1339 19.375C40.1562 19.3973 40.1786 19.4196 40.2009 19.4475C40.24 19.4922 40.2734 19.5368 40.3013 19.5871C40.3125 19.6094 40.3292 19.6261 40.3404 19.6484C40.3571 19.6763 40.3739 19.7042 40.385 19.7377C40.3962 19.76 40.4074 19.7824 40.4129 19.8047C40.4241 19.8382 40.4353 19.8717 40.4464 19.8996C40.452 19.9219 40.4632 19.9442 40.4688 19.9665C40.4799 20.0056 40.4855 20.0391 40.4911 20.0781C40.4967 20.0949 40.4967 20.1172 40.5022 20.1339C40.5078 20.1897 40.5134 20.2511 40.5134 20.3069V29.7433ZM26.3337 30.4855V36.6964L36.7801 29.7433L32.115 26.6295L26.3337 30.4855ZM12.154 22.8013V27.2545L15.4911 25.0279L12.154 22.8013ZM25 21.8806L20.2846 25.0279L25 28.1752L29.7154 25.0279L25 21.8806ZM36.7801 20.3125L26.3337 13.3594V19.5703L32.115 23.4263L36.7801 20.3125ZM17.885 26.6295L13.2199 29.7433L23.6663 36.6964V30.4855L17.885 26.6295Z" fill="#A0A0A0"/>
</svg>
