<svg width="50" height="50" viewBox="0 0 50 50" fill="none" xmlns="http://www.w3.org/2000/svg">
<path d="M25.0028 2.14862e-06C11.1887 -0.00573574 0 11.4815 0 25.6599C0 36.8717 6.99922 46.4023 16.7467 49.9025C18.0594 50.241 17.8583 49.2828 17.8583 48.6286V44.1818C10.2782 45.0941 9.97095 39.9415 9.46263 39.0808C8.43481 37.2791 6.00492 36.8201 6.73109 35.9594C8.45716 35.0471 10.2167 36.1889 12.2556 39.2816C13.7303 41.5251 16.6071 41.1464 18.065 40.7735C18.3834 39.4251 19.0649 38.2201 20.0034 37.2848C12.1495 35.8389 8.8761 30.9158 8.8761 25.0631C8.8761 22.2229 9.78662 19.6121 11.5741 17.5063C10.4346 14.0349 11.6803 11.0627 11.8478 10.6208C15.0933 10.3225 18.4672 13.0078 18.7297 13.2201C20.5731 12.7094 22.679 12.4398 25.0363 12.4398C27.4048 12.4398 29.5163 12.7209 31.3764 13.2373C32.0076 12.7439 35.1357 10.4372 38.1522 10.7184C38.3142 11.1602 39.5319 14.0636 38.4594 17.4891C40.2692 19.6006 41.1909 22.2343 41.1909 25.0803C41.1909 30.9445 37.8952 35.8733 30.019 37.2963C30.6936 37.9778 31.2293 38.7905 31.5947 39.687C31.9601 40.5835 32.1479 41.5459 32.1472 42.5178V48.9729C32.1919 49.4893 32.1472 50 32.9851 50C42.8779 46.5745 50 36.975 50 25.6656C50 11.4815 38.8057 2.14862e-06 25.0028 2.14862e-06Z" fill="#A0A0A0"/>
</svg>
